<?xml version="1.0" encoding="UTF-8" standalone="no"?>
<!DOCTYPE svg PUBLIC "-//W3C//DTD SVG 1.1//EN"
 "http://www.w3.org/Graphics/SVG/1.1/DTD/svg11.dtd">
<!-- Generated by graphviz version 2.40.1 (20161225.0304)
 -->
<!-- Title: G Pages: 1 -->
<svg width="1077pt" height="285pt"
 viewBox="0.00 0.00 1076.79 284.89" xmlns="http://www.w3.org/2000/svg" xmlns:xlink="http://www.w3.org/1999/xlink">
<g id="graph0" class="graph" transform="scale(1 1) rotate(0) translate(4 280.8925)">
<title>G</title>
<polygon fill="#ffffff" stroke="transparent" points="-4,4 -4,-280.8925 1072.794,-280.8925 1072.794,4 -4,4"/>
<!-- A0 -->
<g id="node1" class="node">
<title>A0</title>
<polygon fill="none" stroke="#000000" points="449,-128 449,-160 581,-160 581,-128 449,-128"/>
<text text-anchor="start" x="458.603" y="-141" font-family="Helvetica,sans-Serif" font-size="10.00" fill="#000000">child&#45;process.spawnSync</text>
<polygon fill="none" stroke="#000000" points="449,-96 449,-128 581,-128 581,-96 449,-96"/>
<text text-anchor="start" x="487.79" y="-109" font-family="Helvetica,sans-Serif" font-size="10.00" fill="#000000">^script=arg2</text>
<polygon fill="none" stroke="#000000" points="449,-64 449,-96 581,-96 581,-64 449,-64"/>
<text text-anchor="start" x="490.005" y="-77" font-family="Helvetica,sans-Serif" font-size="10.00" fill="#000000">^path=arg3</text>
<polygon fill="none" stroke="#000000" points="449,-32 449,-64 581,-64 581,-32 449,-32"/>
<text text-anchor="start" x="485.836" y="-45" font-family="Helvetica,sans-Serif" font-size="10.00" fill="#000000">^output=arg4</text>
</g>
<!-- A1 -->
<g id="node2" class="node">
<title>A1</title>
<polygon fill="none" stroke="#000000" points="764,-191 764,-223 842,-223 842,-191 764,-191"/>
<text text-anchor="start" x="777.7155" y="-204" font-family="Helvetica,sans-Serif" font-size="10.00" fill="#000000">path.format</text>
<polygon fill="none" stroke="#000000" points="764,-159 764,-191 842,-191 842,-159 764,-159"/>
<text text-anchor="start" x="782.8535" y="-172" font-family="Helvetica,sans-Serif" font-size="10.00" fill="#000000">ext=.json</text>
<polygon fill="none" stroke="#000000" points="764,-127 764,-159 842,-159 842,-127 764,-127"/>
<text text-anchor="start" x="773.676" y="-140" font-family="Helvetica,sans-Serif" font-size="10.00" fill="#000000">path$=output</text>
</g>
<!-- A0&#45;&gt;A1 -->
<g id="edge11" class="edge">
<title>A0&#45;&gt;A1</title>
<path fill="none" stroke="#000000" d="M590.7129,-124.2557C604.047,-128.8023 617.8624,-133.2423 631,-137 675.9852,-149.8671 728.6362,-160.9273 763.7216,-167.7444"/>
<polygon fill="none" stroke="#000000" points="591.7001,-120.8938 581.1053,-120.9345 589.413,-127.5096 591.7001,-120.8938"/>
</g>
<!-- A8 -->
<g id="node9" class="node">
<title>A8</title>
<polygon fill="none" stroke="#000000" points="631,-96 631,-128 709,-128 709,-96 631,-96"/>
<text text-anchor="start" x="640.8285" y="-109" font-family="Helvetica,sans-Serif" font-size="10.00" fill="#000000">fs.existsSync</text>
<polygon fill="none" stroke="#000000" points="631,-64 631,-96 709,-96 709,-64 631,-64"/>
<text text-anchor="start" x="641.111" y="-77" font-family="Helvetica,sans-Serif" font-size="10.00" fill="#000000">^output=path</text>
</g>
<!-- A0&#45;&gt;A8 -->
<g id="edge12" class="edge">
<title>A0&#45;&gt;A8</title>
<path fill="none" stroke="#000000" d="M581.1835,-96C594.4259,-96 608.1187,-96 620.6703,-96"/>
<polygon fill="#000000" stroke="#000000" points="630.9104,-96 620.9105,-100.5001 625.9104,-96 620.9104,-96.0001 620.9104,-96.0001 620.9104,-96.0001 625.9104,-96 620.9104,-91.5001 630.9104,-96 630.9104,-96"/>
</g>
<!-- A2 -->
<g id="node3" class="node">
<title>A2</title>
<polygon fill="none" stroke="#000000" points="961.493,-193 898.507,-193 898.507,-157 961.493,-157 961.493,-193"/>
<text text-anchor="middle" x="930" y="-172" font-family="Helvetica,sans-Serif" font-size="10.00" fill="#000000">yuml.dir</text>
</g>
<!-- A1&#45;&gt;A2 -->
<g id="edge1" class="edge">
<title>A1&#45;&gt;A2</title>
<path fill="none" stroke="#000000" d="M852.1425,-175C867.6924,-175 884.4545,-175 898.4283,-175"/>
<polygon fill="none" stroke="#000000" points="852.1405,-171.5001 842.1405,-175 852.1404,-178.5001 852.1405,-171.5001"/>
</g>
<!-- A3 -->
<g id="node4" class="node">
<title>A3</title>
<polygon fill="none" stroke="#000000" points="286.5,-150 286.5,-182 399.5,-182 399.5,-150 286.5,-150"/>
<text text-anchor="start" x="324.1045" y="-163" font-family="Helvetica,sans-Serif" font-size="10.00" fill="#000000">path.join</text>
<polygon fill="none" stroke="#000000" points="286.5,-118 286.5,-150 399.5,-150 399.5,-118 286.5,-118"/>
<text text-anchor="start" x="296.3285" y="-131" font-family="Helvetica,sans-Serif" font-size="10.00" fill="#000000">^extensionPath=path</text>
<polygon fill="none" stroke="#000000" points="286.5,-86 286.5,-118 399.5,-118 399.5,-86 286.5,-86"/>
<text text-anchor="start" x="318.5595" y="-99" font-family="Helvetica,sans-Serif" font-size="10.00" fill="#000000">^ast=path1</text>
<polygon fill="none" stroke="#000000" points="286.5,-54 286.5,-86 399.5,-86 399.5,-54 286.5,-54"/>
<text text-anchor="start" x="315.63" y="-67" font-family="Helvetica,sans-Serif" font-size="10.00" fill="#000000">path$=script</text>
</g>
<!-- A3&#45;&gt;A0 -->
<g id="edge3" class="edge">
<title>A3&#45;&gt;A0</title>
<path fill="none" stroke="#000000" d="M399.461,-110.7354C412.0515,-109.1297 425.5869,-107.4034 438.803,-105.7179"/>
<polygon fill="#000000" stroke="#000000" points="448.8263,-104.4395 439.476,-110.1686 443.8665,-105.0721 438.9067,-105.7047 438.9067,-105.7047 438.9067,-105.7047 443.8665,-105.0721 438.3373,-101.2409 448.8263,-104.4395 448.8263,-104.4395"/>
</g>
<!-- A4 -->
<g id="node5" class="node">
<title>A4</title>
<polygon fill="none" stroke="#000000" points="451,-210 451,-242 579,-242 579,-210 451,-210"/>
<text text-anchor="start" x="460.5345" y="-223" font-family="Helvetica,sans-Serif" font-size="10.00" fill="#000000">extension.extensionPath</text>
<polygon fill="none" stroke="#000000" points="451,-178 451,-210 579,-210 579,-178 451,-178"/>
<text text-anchor="start" x="467.8935" y="-191" font-family="Helvetica,sans-Serif" font-size="10.00" fill="#000000">path$=extensionPath</text>
</g>
<!-- A3&#45;&gt;A4 -->
<g id="edge2" class="edge">
<title>A3&#45;&gt;A4</title>
<path fill="none" stroke="#000000" d="M408.3397,-153.1145C423.6241,-161.2662 439.8156,-169.9017 454.841,-177.9152"/>
<polygon fill="none" stroke="#000000" points="409.9316,-149.9969 399.461,-148.3792 406.6375,-156.1734 409.9316,-149.9969"/>
</g>
<!-- A5 -->
<g id="node6" class="node">
<title>A5</title>
<polygon fill="none" stroke="#000000" points="54,-196 0,-196 0,-160 54,-160 54,-196"/>
<text text-anchor="middle" x="27" y="-175" font-family="Helvetica,sans-Serif" font-size="10.00" fill="#000000">load</text>
</g>
<!-- A5&#45;&gt;A1 -->
<g id="edge4" class="edge">
<title>A5&#45;&gt;A1</title>
<path fill="none" stroke="#000000" d="M40.0054,-196.0376C53.7301,-213.4887 77.0777,-239.0057 104,-251 201.1323,-294.2738 236.1642,-270 342.5,-270 342.5,-270 342.5,-270 515,-270 603.0268,-270 698.9154,-229.4793 754.8505,-201.3657"/>
<polygon fill="#000000" stroke="#000000" points="763.8125,-196.7949 756.9487,-205.3471 759.3584,-199.0666 754.9042,-201.3384 754.9042,-201.3384 754.9042,-201.3384 759.3584,-199.0666 752.8597,-197.3296 763.8125,-196.7949 763.8125,-196.7949"/>
</g>
<!-- A6 -->
<g id="node7" class="node">
<title>A6</title>
<polygon fill="none" stroke="#000000" points="112,-210 112,-242 228,-242 228,-210 112,-210"/>
<text text-anchor="start" x="151.109" y="-223" font-family="Helvetica,sans-Serif" font-size="10.00" fill="#000000">loadDart</text>
<polygon fill="none" stroke="#000000" points="112,-178 112,-210 228,-210 228,-178 112,-178"/>
<text text-anchor="start" x="136.5205" y="-191" font-family="Helvetica,sans-Serif" font-size="10.00" fill="#000000">command=dart</text>
<polygon fill="none" stroke="#000000" points="112,-146 112,-178 228,-178 228,-146 112,-146"/>
<text text-anchor="start" x="149.854" y="-159" font-family="Helvetica,sans-Serif" font-size="10.00" fill="#000000">arg1=run</text>
<polygon fill="none" stroke="#000000" points="112,-114 112,-146 228,-146 228,-114 112,-114"/>
<text text-anchor="start" x="121.515" y="-127" font-family="Helvetica,sans-Serif" font-size="10.00" fill="#000000">ast=ast/dart/main.dart</text>
</g>
<!-- A5&#45;&gt;A6 -->
<g id="edge5" class="edge">
<title>A5&#45;&gt;A6</title>
<path fill="none" stroke="#000000" d="M54.2338,-178C67.7224,-178 84.6762,-178 101.4165,-178"/>
<polygon fill="#000000" stroke="#000000" points="111.7792,-178 101.7793,-182.5001 106.7792,-178 101.7792,-178.0001 101.7792,-178.0001 101.7792,-178.0001 106.7792,-178 101.7792,-173.5001 111.7792,-178 111.7792,-178"/>
</g>
<!-- A7 -->
<g id="node8" class="node">
<title>A7</title>
<polygon fill="none" stroke="#000000" points="104,-64 104,-96 236,-96 236,-64 104,-64"/>
<text text-anchor="start" x="136.661" y="-77" font-family="Helvetica,sans-Serif" font-size="10.00" fill="#000000">loadTypeScript</text>
<polygon fill="none" stroke="#000000" points="104,-32 104,-64 236,-64 236,-32 104,-32"/>
<text text-anchor="start" x="134.0155" y="-45" font-family="Helvetica,sans-Serif" font-size="10.00" fill="#000000">command=node</text>
<polygon fill="none" stroke="#000000" points="104,0 104,-32 236,-32 236,0 104,0"/>
<text text-anchor="start" x="113.74" y="-13" font-family="Helvetica,sans-Serif" font-size="10.00" fill="#000000">ast=ast/typescript/main.js</text>
</g>
<!-- A5&#45;&gt;A7 -->
<g id="edge8" class="edge">
<title>A5&#45;&gt;A7</title>
<path fill="none" stroke="#000000" d="M45.7568,-159.7524C61.2086,-144.8335 83.7857,-123.2931 104,-105 104.8139,-104.2635 105.6346,-103.523 106.4611,-102.7793"/>
<polygon fill="#000000" stroke="#000000" points="114.028,-96.0221 109.5664,-106.0393 110.2986,-99.3525 106.5691,-102.6828 106.5691,-102.6828 106.5691,-102.6828 110.2986,-99.3525 103.5718,-99.3263 114.028,-96.0221 114.028,-96.0221"/>
</g>
<!-- A6&#45;&gt;A0 -->
<g id="edge7" class="edge">
<title>A6&#45;&gt;A0</title>
<path fill="none" stroke="#000000" d="M228.249,-193.5749C275.6335,-203.3834 343.4999,-210.8262 399,-191 414.9836,-185.2902 430.3503,-176.3262 444.3774,-166.136"/>
<polygon fill="#000000" stroke="#000000" points="452.4762,-160.0098 447.2157,-169.6315 448.4885,-163.0262 444.5009,-166.0426 444.5009,-166.0426 444.5009,-166.0426 448.4885,-163.0262 441.7861,-162.4537 452.4762,-160.0098 452.4762,-160.0098"/>
<text text-anchor="middle" x="247.6456" y="-185.6991" font-family="Helvetica,sans-Serif" font-size="10.00" fill="#000000">?</text>
</g>
<!-- A6&#45;&gt;A3 -->
<g id="edge6" class="edge">
<title>A6&#45;&gt;A3</title>
<path fill="none" stroke="#000000" d="M228.4006,-157.6867C243.7796,-152.3375 260.4819,-146.528 276.2418,-141.0463"/>
<polygon fill="#000000" stroke="#000000" points="285.9125,-137.6826 277.9459,-145.2181 281.1901,-139.3252 276.4676,-140.9679 276.4676,-140.9679 276.4676,-140.9679 281.1901,-139.3252 274.9892,-136.7176 285.9125,-137.6826 285.9125,-137.6826"/>
<text text-anchor="middle" x="242.744" y="-140.7487" font-family="Helvetica,sans-Serif" font-size="10.00" fill="#000000">?</text>
</g>
<!-- A7&#45;&gt;A0 -->
<g id="edge10" class="edge">
<title>A7&#45;&gt;A0</title>
<path fill="none" stroke="#000000" d="M236.3835,-39.5276C282.5017,-35.4833 345.1087,-33.6763 399,-45 412.4263,-47.8212 426.1951,-52.2944 439.3427,-57.4473"/>
<polygon fill="#000000" stroke="#000000" points="448.7926,-61.3057 437.8335,-61.6917 444.1636,-59.4156 439.5345,-57.5256 439.5345,-57.5256 439.5345,-57.5256 444.1636,-59.4156 441.2356,-53.3595 448.7926,-61.3057 448.7926,-61.3057"/>
<text text-anchor="middle" x="253.7841" y="-26.6677" font-family="Helvetica,sans-Serif" font-size="10.00" fill="#000000">?</text>
</g>
<!-- A7&#45;&gt;A3 -->
<g id="edge9" class="edge">
<title>A7&#45;&gt;A3</title>
<path fill="none" stroke="#000000" d="M236.1997,-74.8636C249.3499,-80.1999 263.1584,-85.8034 276.3083,-91.1396"/>
<polygon fill="#000000" stroke="#000000" points="285.7482,-94.9703 274.79,-95.3798 281.1152,-93.0902 276.4821,-91.2101 276.4821,-91.2101 276.4821,-91.2101 281.1152,-93.0902 278.1742,-87.0403 285.7482,-94.9703 285.7482,-94.9703"/>
<text text-anchor="middle" x="256.1738" y="-70.8473" font-family="Helvetica,sans-Serif" font-size="10.00" fill="#000000">?</text>
</g>
<!-- A8&#45;&gt;A1 -->
<g id="edge13" class="edge">
<title>A8&#45;&gt;A1</title>
<path fill="none" stroke="#000000" d="M717.8443,-124.4188C732.8664,-133.3417 749.2705,-143.0855 763.6354,-151.618"/>
<polygon fill="none" stroke="#000000" points="719.5701,-121.3731 709.185,-119.2753 715.9953,-127.3914 719.5701,-121.3731"/>
</g>
<!-- A9 -->
<g id="node10" class="node">
<title>A9</title>
<polygon fill="none" stroke="#000000" points="759,-77 759,-109 847,-109 847,-77 759,-77"/>
<text text-anchor="start" x="768.551" y="-90" font-family="Helvetica,sans-Serif" font-size="10.00" fill="#000000">fs.readFileSync</text>
<polygon fill="none" stroke="#000000" points="759,-45 759,-77 847,-77 847,-45 759,-45"/>
<text text-anchor="start" x="769.7915" y="-58" font-family="Helvetica,sans-Serif" font-size="10.00" fill="#000000">encoding=utf&#45;8</text>
</g>
<!-- A8&#45;&gt;A9 -->
<g id="edge14" class="edge">
<title>A8&#45;&gt;A9</title>
<path fill="none" stroke="#000000" d="M709.185,-90.4021C721.6413,-88.6227 735.6451,-86.6221 748.9581,-84.7203"/>
<polygon fill="#000000" stroke="#000000" points="758.9669,-83.2904 749.7038,-89.1595 754.0171,-83.9976 749.0674,-84.7047 749.0674,-84.7047 749.0674,-84.7047 754.0171,-83.9976 748.431,-80.25 758.9669,-83.2904 758.9669,-83.2904"/>
</g>
<!-- A10 -->
<g id="node11" class="node">
<title>A10</title>
<polygon fill="none" stroke="#000000" points="897,-77 897,-109 963,-109 963,-77 897,-77"/>
<text text-anchor="start" x="906.939" y="-90" font-family="Helvetica,sans-Serif" font-size="10.00" fill="#000000">json.parse</text>
<polygon fill="none" stroke="#000000" points="897,-45 897,-77 963,-77 963,-45 897,-45"/>
<text text-anchor="start" x="906.9495" y="-58" font-family="Helvetica,sans-Serif" font-size="10.00" fill="#000000">^data=text</text>
</g>
<!-- A9&#45;&gt;A10 -->
<g id="edge15" class="edge">
<title>A9&#45;&gt;A10</title>
<path fill="none" stroke="#000000" d="M847.062,-77C859.8232,-77 873.7435,-77 886.4719,-77"/>
<polygon fill="#000000" stroke="#000000" points="896.8318,-77 886.8318,-81.5001 891.8318,-77 886.8318,-77.0001 886.8318,-77.0001 886.8318,-77.0001 891.8318,-77 886.8318,-72.5001 896.8318,-77 896.8318,-77"/>
</g>
<!-- A11 -->
<g id="node12" class="node">
<title>A11</title>
<polygon fill="none" stroke="#000000" points="1068.6914,-95 1013.1026,-95 1013.1026,-59 1068.6914,-59 1068.6914,-95"/>
<text text-anchor="middle" x="1040.897" y="-74" font-family="Helvetica,sans-Serif" font-size="10.00" fill="#000000">output</text>
</g>
<!-- A10&#45;&gt;A11 -->
<g id="edge16" class="edge">
<title>A10&#45;&gt;A11</title>
<path fill="none" stroke="#000000" d="M963.2728,-77C975.6339,-77 989.7555,-77 1002.5351,-77"/>
<polygon fill="#000000" stroke="#000000" points="1012.8861,-77 1002.8862,-81.5001 1007.8861,-77 1002.8861,-77.0001 1002.8861,-77.0001 1002.8861,-77.0001 1007.8861,-77 1002.8861,-72.5001 1012.8861,-77 1012.8861,-77"/>
</g>
</g>
</svg>
