<?xml version="1.0" encoding="UTF-8" standalone="no"?>
<!DOCTYPE svg PUBLIC "-//W3C//DTD SVG 1.1//EN"
 "http://www.w3.org/Graphics/SVG/1.1/DTD/svg11.dtd">
<!-- Generated by graphviz version 2.40.1 (20161225.0304)
 -->
<!-- Title: G Pages: 1 -->
<svg width="1042pt" height="182pt"
 viewBox="0.00 0.00 1041.70 182.38" xmlns="http://www.w3.org/2000/svg" xmlns:xlink="http://www.w3.org/1999/xlink">
<g id="graph0" class="graph" transform="scale(1 1) rotate(0) translate(4 178.3775)">
<title>G</title>
<polygon fill="#ffffff" stroke="transparent" points="-4,4 -4,-178.3775 1037.701,-178.3775 1037.701,4 -4,4"/>
<!-- A0 -->
<g id="node1" class="node">
<title>A0</title>
<polygon fill="none" stroke="#000000" points="617.132,-132 563.132,-132 563.132,-96 617.132,-96 617.132,-132"/>
<text text-anchor="middle" x="590.132" y="-111" font-family="Helvetica,sans-Serif" font-size="10.00" fill="#000000">json</text>
</g>
<!-- A1 -->
<g id="node2" class="node">
<title>A1</title>
<polygon fill="none" stroke="#000000" points="425.132,-114 425.132,-146 513.132,-146 513.132,-114 425.132,-114"/>
<text text-anchor="start" x="434.683" y="-127" font-family="Helvetica,sans-Serif" font-size="10.00" fill="#000000">fs.readFileSync</text>
<polygon fill="none" stroke="#000000" points="425.132,-82 425.132,-114 513.132,-114 513.132,-82 425.132,-82"/>
<text text-anchor="start" x="435.9235" y="-95" font-family="Helvetica,sans-Serif" font-size="10.00" fill="#000000">encoding=utf&#45;8</text>
</g>
<!-- A0&#45;&gt;A1 -->
<g id="edge1" class="edge">
<title>A0&#45;&gt;A1</title>
<path fill="none" stroke="#000000" d="M552.8898,-114C540.373,-114 526.2894,-114 513.2932,-114"/>
<polygon fill="none" stroke="#000000" points="552.9773,-117.5001 562.9772,-114 552.9772,-110.5001 552.9773,-117.5001"/>
</g>
<!-- A2 -->
<g id="node3" class="node">
<title>A2</title>
<polygon fill="none" stroke="#000000" points="375.3042,-132 288.6168,-132 288.6168,-96 375.3042,-96 375.3042,-132"/>
<text text-anchor="middle" x="331.9605" y="-111" font-family="Helvetica,sans-Serif" font-size="10.00" fill="#000000">fs.existsSync</text>
</g>
<!-- A1&#45;&gt;A2 -->
<g id="edge2" class="edge">
<title>A1&#45;&gt;A2</title>
<path fill="none" stroke="#000000" d="M414.7352,-114C401.7295,-114 388.0119,-114 375.5656,-114"/>
<polygon fill="none" stroke="#000000" points="414.9751,-117.5001 424.975,-114 414.975,-110.5001 414.9751,-117.5001"/>
</g>
<!-- A3 -->
<g id="node4" class="node">
<title>A3</title>
<polygon fill="none" stroke="#000000" points="146.289,-114 146.289,-146 239.289,-146 239.289,-114 146.289,-114"/>
<text text-anchor="start" x="173.8935" y="-127" font-family="Helvetica,sans-Serif" font-size="10.00" fill="#000000">path.join</text>
<polygon fill="none" stroke="#000000" points="146.289,-82 146.289,-114 239.289,-114 239.289,-82 146.289,-82"/>
<text text-anchor="start" x="156.2505" y="-95" font-family="Helvetica,sans-Serif" font-size="10.00" fill="#000000">path1=yuml.json</text>
</g>
<!-- A2&#45;&gt;A3 -->
<g id="edge3" class="edge">
<title>A2&#45;&gt;A3</title>
<path fill="none" stroke="#000000" d="M278.3588,-114C265.416,-114 251.6857,-114 239.0829,-114"/>
<polygon fill="none" stroke="#000000" points="278.5332,-117.5001 288.5332,-114 278.5332,-110.5001 278.5332,-117.5001"/>
</g>
<!-- A4 -->
<g id="node5" class="node">
<title>A4</title>
<polygon fill="none" stroke="#000000" points="95.6837,-132 .1053,-132 .1053,-96 95.6837,-96 95.6837,-132"/>
<text text-anchor="middle" x="47.8945" y="-111" font-family="Helvetica,sans-Serif" font-size="10.00" fill="#000000">workspace.root</text>
</g>
<!-- A3&#45;&gt;A4 -->
<g id="edge4" class="edge">
<title>A3&#45;&gt;A4</title>
<path fill="none" stroke="#000000" d="M135.1893,-114C122.223,-114 108.5767,-114 96.0259,-114"/>
<polygon fill="none" stroke="#000000" points="135.4083,-117.5001 145.4082,-114 135.4082,-110.5001 135.4083,-117.5001"/>
</g>
<!-- A5 -->
<g id="node6" class="node">
<title>A5</title>
<polygon fill="none" stroke="#000000" points="1033.7591,-162 979.5269,-162 979.5269,-126 1033.7591,-126 1033.7591,-162"/>
<text text-anchor="middle" x="1006.643" y="-141" font-family="Helvetica,sans-Serif" font-size="10.00" fill="#000000">watch</text>
</g>
<!-- A6 -->
<g id="node7" class="node">
<title>A6</title>
<polygon fill="none" stroke="#000000" points="929.8124,-162 816.9046,-162 816.9046,-126 929.8124,-126 929.8124,-162"/>
<text text-anchor="middle" x="873.3585" y="-141" font-family="Helvetica,sans-Serif" font-size="10.00" fill="#000000">path.join:workflows</text>
</g>
<!-- A5&#45;&gt;A6 -->
<g id="edge5" class="edge">
<title>A5&#45;&gt;A6</title>
<path fill="none" stroke="#000000" d="M969.0907,-144C956.88,-144 943.0483,-144 929.7714,-144"/>
<polygon fill="none" stroke="#000000" points="969.3493,-147.5001 979.3493,-144 969.3492,-140.5001 969.3493,-147.5001"/>
</g>
<!-- A6&#45;&gt;A4 -->
<g id="edge8" class="edge">
<title>A6&#45;&gt;A4</title>
<path fill="none" stroke="#000000" d="M807.1143,-155.0112C749.8483,-163.5712 664.7651,-174 590.132,-174 590.132,-174 590.132,-174 331.9605,-174 248.7878,-174 226.3932,-175.5098 145.789,-155 124.5392,-149.593 101.8921,-140.3535 83.7383,-132.013"/>
<polygon fill="none" stroke="#000000" points="807.7588,-158.4535 817.1201,-153.4922 806.7081,-151.5328 807.7588,-158.4535"/>
</g>
<!-- A7 -->
<g id="node8" class="node">
<title>A7</title>
<polygon fill="none" stroke="#000000" points="667.132,-114 667.132,-146 767.132,-146 767.132,-114 667.132,-114"/>
<text text-anchor="start" x="677.13" y="-127" font-family="Helvetica,sans-Serif" font-size="10.00" fill="#000000">format.formatArgs</text>
<polygon fill="none" stroke="#000000" points="667.132,-82 667.132,-114 767.132,-114 767.132,-82 667.132,-82"/>
<text text-anchor="start" x="676.984" y="-95" font-family="Helvetica,sans-Serif" font-size="10.00" fill="#000000">$workflows=path1</text>
</g>
<!-- A6&#45;&gt;A7 -->
<g id="edge7" class="edge">
<title>A6&#45;&gt;A7</title>
<path fill="none" stroke="#000000" d="M806.9084,-131.2397C793.6159,-128.6871 779.8624,-126.046 767.2346,-123.6211"/>
<polygon fill="none" stroke="#000000" points="806.4765,-134.7206 816.9571,-133.1693 807.7966,-127.8462 806.4765,-134.7206"/>
</g>
<!-- A7&#45;&gt;A0 -->
<g id="edge6" class="edge">
<title>A7&#45;&gt;A0</title>
<path fill="none" stroke="#000000" d="M656.9128,-114C643.0414,-114 628.9608,-114 617.328,-114"/>
<polygon fill="none" stroke="#000000" points="656.9383,-117.5001 666.9382,-114 656.9382,-110.5001 656.9383,-117.5001"/>
</g>
<!-- A8 -->
<g id="node9" class="node">
<title>A8</title>
<polygon fill="none" stroke="#000000" points="496.132,-50 442.132,-50 442.132,-14 496.132,-14 496.132,-50"/>
<text text-anchor="middle" x="469.132" y="-29" font-family="Helvetica,sans-Serif" font-size="10.00" fill="#000000">dir</text>
</g>
<!-- A9 -->
<g id="node10" class="node">
<title>A9</title>
<polygon fill="none" stroke="#000000" points="293.9605,-32 293.9605,-64 370.9605,-64 370.9605,-32 293.9605,-32"/>
<text text-anchor="start" x="303.8495" y="-45" font-family="Helvetica,sans-Serif" font-size="10.00" fill="#000000">fs.mkdirSync</text>
<polygon fill="none" stroke="#000000" points="293.9605,0 293.9605,-32 370.9605,-32 370.9605,0 293.9605,0"/>
<text text-anchor="start" x="311.48" y="-13" font-family="Helvetica,sans-Serif" font-size="10.00" fill="#000000">path$=dir</text>
</g>
<!-- A8&#45;&gt;A9 -->
<g id="edge9" class="edge">
<title>A8&#45;&gt;A9</title>
<path fill="none" stroke="#000000" d="M431.9564,-32C412.9719,-32 389.8921,-32 370.6912,-32"/>
<polygon fill="none" stroke="#000000" points="432.0314,-35.5001 442.0313,-32 432.0313,-28.5001 432.0314,-35.5001"/>
</g>
<!-- A10 -->
<g id="node11" class="node">
<title>A10</title>
<polygon fill="none" stroke="#000000" points="154.289,-32 154.289,-64 231.289,-64 231.289,-32 154.289,-32"/>
<text text-anchor="start" x="166.9505" y="-45" font-family="Helvetica,sans-Serif" font-size="10.00" fill="#000000">path.join:dir</text>
<polygon fill="none" stroke="#000000" points="154.289,0 154.289,-32 231.289,-32 231.289,0 154.289,0"/>
<text text-anchor="start" x="164.0295" y="-13" font-family="Helvetica,sans-Serif" font-size="10.00" fill="#000000">path1=.yuml/</text>
</g>
<!-- A9&#45;&gt;A10 -->
<g id="edge10" class="edge">
<title>A9&#45;&gt;A10</title>
<path fill="none" stroke="#000000" d="M283.1142,-32C266.1089,-32 247.2731,-32 231.1837,-32"/>
<polygon fill="none" stroke="#000000" points="283.425,-35.5001 293.4249,-32 283.4249,-28.5001 283.425,-35.5001"/>
</g>
<!-- A10&#45;&gt;A4 -->
<g id="edge11" class="edge">
<title>A10&#45;&gt;A4</title>
<path fill="none" stroke="#000000" d="M144.6986,-59.026C123.4209,-71.1094 98.9042,-85.0322 79.8675,-95.8429"/>
<polygon fill="none" stroke="#000000" points="146.6266,-61.9562 153.5939,-53.9745 143.1699,-55.8692 146.6266,-61.9562"/>
</g>
</g>
</svg>
